<svg width="1440" height="900" viewBox="0 0 1440 900" fill="none" xmlns="http://www.w3.org/2000/svg">
<mask id="mask0_0_1" style="mask-type:alpha" maskUnits="userSpaceOnUse" x="811" y="-14" width="740" height="655">
<rect x="1407.45" y="-14" width="495.423" height="622.921" transform="rotate(73.2361 1407.45 -14)" fill="url(#paint0_linear_0_1)"/>
</mask>
<g mask="url(#mask0_0_1)">
<path d="M1147.98 511.822C1051.34 540.933 949.399 486.19 920.289 389.551C891.178 292.911 945.921 190.97 1042.56 161.86C1139.2 132.749 1110.92 226.718 1140.03 323.357C1169.14 419.997 1244.62 482.712 1147.98 511.822Z" fill="#0075FF"/>
<g filter="url(#filter0_f_0_1)">
<path d="M1144.49 512.873C1069.68 535.407 985.44 475.333 956.33 378.693C927.219 282.054 964.263 185.444 1039.07 162.91C1113.88 140.376 1198.12 200.45 1227.23 297.09C1256.34 393.729 1219.3 490.339 1144.49 512.873Z" fill="#0075FF"/>
</g>
<g filter="url(#filter1_f_0_1)">
<ellipse cx="1098.75" cy="335.79" rx="182.748" ry="141.463" transform="rotate(73.2361 1098.75 335.79)" fill="#0075FF"/>
</g>
<g filter="url(#filter2_f_0_1)">
<ellipse cx="1117.94" cy="330.011" rx="182.748" ry="142.07" transform="rotate(73.2361 1117.94 330.011)" fill="#0075FF"/>
</g>
<g filter="url(#filter3_f_0_1)">
<ellipse cx="1175.49" cy="312.675" rx="182.748" ry="141.463" transform="rotate(73.2361 1175.49 312.675)" fill="#0075FF"/>
</g>
<g filter="url(#filter4_f_0_1)">
<ellipse cx="1253.39" cy="289.209" rx="153.605" ry="141.463" transform="rotate(73.2361 1253.39 289.209)" fill="#0075FF"/>
</g>
</g>
<mask id="mask1_0_1" style="mask-type:alpha" maskUnits="userSpaceOnUse" x="315" y="-96" width="797" height="1020">
<path d="M315.773 923.726L583.85 -95.9354L1111.53 248.387L1068.55 766.28L315.773 923.726Z" fill="url(#paint1_linear_0_1)"/>
</mask>
<g mask="url(#mask1_0_1)">
<path d="M872.812 298.873C978.318 307.629 1056.75 400.256 1047.99 505.763C1039.24 611.269 946.612 689.701 841.105 680.946C735.599 672.19 799.333 591.36 808.089 485.854C816.844 380.347 767.305 290.118 872.812 298.873Z" fill="#00FF85"/>
<g filter="url(#filter5_f_0_1)">
<path d="M876.62 299.19C958.291 305.968 1017.4 396.992 1008.65 502.498C999.89 608.005 926.585 688.04 844.914 681.263C763.242 674.485 704.133 583.461 712.888 477.955C721.644 372.448 794.949 292.413 876.62 299.19Z" fill="#00FF85"/>
</g>
<g filter="url(#filter6_f_0_1)">
<ellipse cx="853.153" cy="489.593" rx="191.693" ry="148.387" transform="rotate(-85.2562 853.153 489.593)" fill="#00FF85"/>
</g>
<g filter="url(#filter7_f_0_1)">
<ellipse cx="832.205" cy="487.856" rx="191.693" ry="149.024" transform="rotate(-85.2562 832.205 487.856)" fill="#00FF85"/>
</g>
<g filter="url(#filter8_f_0_1)">
<ellipse cx="769.374" cy="482.641" rx="191.693" ry="148.387" transform="rotate(-85.2562 769.374 482.641)" fill="#00FF85"/>
</g>
<g filter="url(#filter9_f_0_1)">
<ellipse cx="684.329" cy="475.584" rx="161.124" ry="148.387" transform="rotate(-85.2562 684.329 475.584)" fill="#00FF85"/>
</g>
</g>
<mask id="mask2_0_1" style="mask-type:alpha" maskUnits="userSpaceOnUse" x="325" y="-167" width="976" height="944">
<path d="M325.549 190.972L1010.54 -166.049L1300.5 419.5L615.514 776.521L325.549 190.972Z" fill="url(#paint2_linear_0_1)"/>
</mask>
<g mask="url(#mask2_0_1)">
<path d="M1054.82 307.051C1101.81 401.924 1062.98 516.921 968.108 563.902C873.235 610.884 758.238 572.06 711.257 477.186C664.275 382.312 766.406 395.155 861.279 348.174C956.153 301.192 1007.84 212.177 1054.82 307.051Z" fill="#C0FF3A"/>
<g filter="url(#filter10_f_0_1)">
<path d="M1056.52 310.473C1092.89 383.913 1045.46 481.535 950.588 528.516C855.714 575.498 749.322 554.049 712.954 480.608C676.587 407.168 724.015 309.547 818.889 262.565C913.762 215.584 1020.15 237.033 1056.52 310.473Z" fill="#C0FF3A"/>
</g>
<g filter="url(#filter11_f_0_1)">
<ellipse cx="881.346" cy="388.694" rx="191.693" ry="148.387" transform="rotate(-26.3447 881.346 388.694)" fill="#C0FF3A"/>
</g>
<g filter="url(#filter12_f_0_1)">
<ellipse cx="872.021" cy="369.861" rx="191.693" ry="149.024" transform="rotate(-26.3447 872.021 369.861)" fill="#C0FF3A"/>
</g>
<g filter="url(#filter13_f_0_1)">
<ellipse cx="844.042" cy="313.359" rx="191.693" ry="148.387" transform="rotate(-26.3447 844.042 313.359)" fill="#C0FF3A"/>
</g>
<g filter="url(#filter14_f_0_1)">
<ellipse cx="806.17" cy="236.884" rx="161.124" ry="148.387" transform="rotate(-26.3447 806.17 236.884)" fill="#C0FF3A"/>
</g>
</g>
<circle cx="963" cy="440" r="117.038" stroke="#BAFF84" stroke-opacity="0.21" stroke-width="3"/>
<circle cx="963" cy="440" r="207.352" stroke="#BAFF84" stroke-opacity="0.21" stroke-width="3"/>
<circle opacity="0.4" cx="963" cy="440" r="312.719" stroke="#BAFF84" stroke-opacity="0.21" stroke-width="3"/>
<circle opacity="0.2" cx="963" cy="440" r="411.5" stroke="#BAFF84" stroke-opacity="0.21" stroke-width="3"/>
<mask id="mask3_0_1" style="mask-type:alpha" maskUnits="userSpaceOnUse" x="753" y="134" width="731" height="640">
<rect x="1355.5" y="134" width="495.423" height="622.921" transform="rotate(75 1355.5 134)" fill="url(#paint3_linear_0_1)"/>
</mask>
<g mask="url(#mask3_0_1)">
<path d="M1079.97 651.587C982.482 677.709 882.275 619.854 856.153 522.364C830.03 424.875 887.885 324.667 985.375 298.545C1082.86 272.423 1051.71 365.476 1077.83 462.966C1103.95 560.456 1177.46 625.464 1079.97 651.587Z" fill="#00FF38"/>
<g filter="url(#filter15_f_0_1)">
<path d="M1076.45 652.529C1000.99 672.75 918.633 610.111 892.511 512.622C866.388 415.132 906.389 319.708 981.854 299.487C1057.32 279.267 1139.67 341.905 1165.8 439.395C1191.92 536.885 1151.92 632.308 1076.45 652.529Z" fill="#00FF38"/>
</g>
<g filter="url(#filter16_f_0_1)">
<ellipse cx="1036.19" cy="474.123" rx="182.748" ry="141.463" transform="rotate(75 1036.19 474.123)" fill="#00FF38"/>
</g>
<g filter="url(#filter17_f_0_1)">
<ellipse cx="1055.54" cy="468.937" rx="182.748" ry="142.07" transform="rotate(75 1055.54 468.937)" fill="#00FF38"/>
</g>
<g filter="url(#filter18_f_0_1)">
<ellipse cx="1113.6" cy="453.38" rx="182.748" ry="141.463" transform="rotate(75 1113.6 453.38)" fill="#00FF38"/>
</g>
<g filter="url(#filter19_f_0_1)">
<ellipse cx="1192.18" cy="432.324" rx="153.605" ry="141.463" transform="rotate(75 1192.18 432.324)" fill="#00FF38"/>
</g>
</g>
<mask id="mask4_0_1" style="mask-type:alpha" maskUnits="userSpaceOnUse" x="707" y="239" width="793" height="790">
<rect x="1499.54" y="671.559" width="495.423" height="622.921" transform="rotate(133.911 1499.54 671.559)" fill="url(#paint4_linear_0_1)"/>
</mask>
<g mask="url(#mask4_0_1)">
<path d="M914.02 702.865C841.309 632.867 839.111 517.178 909.11 444.468C979.109 371.757 1094.8 369.559 1167.51 439.558C1240.22 509.557 1144.44 530.924 1074.44 603.634C1004.44 676.345 986.73 772.864 914.02 702.865Z" fill="#00FF38"/>
<g filter="url(#filter20_f_0_1)">
<path d="M911.395 700.339C855.111 646.154 866.229 543.285 936.227 470.574C1006.23 397.864 1108.6 382.846 1164.88 437.032C1221.17 491.217 1210.05 594.086 1140.05 666.796C1070.05 739.506 967.679 754.524 911.395 700.339Z" fill="#00FF38"/>
</g>
<g filter="url(#filter21_f_0_1)">
<ellipse cx="1043.39" cy="573.738" rx="182.748" ry="141.463" transform="rotate(133.911 1043.39 573.738)" fill="#00FF38"/>
</g>
<g filter="url(#filter22_f_0_1)">
<ellipse cx="1057.82" cy="587.633" rx="182.748" ry="142.07" transform="rotate(133.911 1057.82 587.633)" fill="#00FF38"/>
</g>
<g filter="url(#filter23_f_0_1)">
<ellipse cx="1101.12" cy="629.32" rx="182.748" ry="141.463" transform="rotate(133.911 1101.12 629.32)" fill="#00FF38"/>
</g>
<g filter="url(#filter24_f_0_1)">
<ellipse cx="1159.73" cy="685.744" rx="153.605" ry="141.463" transform="rotate(133.911 1159.73 685.744)" fill="#00FF38"/>
</g>
</g>
<defs>
<filter id="filter0_f_0_1" x="942.396" y="154.176" width="298.768" height="367.431" filterUnits="userSpaceOnUse" color-interpolation-filters="sRGB">
<feFlood flood-opacity="0" result="BackgroundImageFix"/>
<feBlend mode="normal" in="SourceGraphic" in2="BackgroundImageFix" result="shape"/>
<feGaussianBlur stdDeviation="2" result="effect1_foregroundBlur_0_1"/>
</filter>
<filter id="filter1_f_0_1" x="939.371" y="142.075" width="318.768" height="387.431" filterUnits="userSpaceOnUse" color-interpolation-filters="sRGB">
<feFlood flood-opacity="0" result="BackgroundImageFix"/>
<feBlend mode="normal" in="SourceGraphic" in2="BackgroundImageFix" result="shape"/>
<feGaussianBlur stdDeviation="7" result="effect1_foregroundBlur_0_1"/>
</filter>
<filter id="filter2_f_0_1" x="938.015" y="116.256" width="359.853" height="427.511" filterUnits="userSpaceOnUse" color-interpolation-filters="sRGB">
<feFlood flood-opacity="0" result="BackgroundImageFix"/>
<feBlend mode="normal" in="SourceGraphic" in2="BackgroundImageFix" result="shape"/>
<feGaussianBlur stdDeviation="17" result="effect1_foregroundBlur_0_1"/>
</filter>
<filter id="filter3_f_0_1" x="956.108" y="58.9592" width="438.768" height="507.431" filterUnits="userSpaceOnUse" color-interpolation-filters="sRGB">
<feFlood flood-opacity="0" result="BackgroundImageFix"/>
<feBlend mode="normal" in="SourceGraphic" in2="BackgroundImageFix" result="shape"/>
<feGaussianBlur stdDeviation="37" result="effect1_foregroundBlur_0_1"/>
</filter>
<filter id="filter4_f_0_1" x="980.839" y="6.53882" width="545.102" height="565.341" filterUnits="userSpaceOnUse" color-interpolation-filters="sRGB">
<feFlood flood-opacity="0" result="BackgroundImageFix"/>
<feBlend mode="normal" in="SourceGraphic" in2="BackgroundImageFix" result="shape"/>
<feGaussianBlur stdDeviation="65" result="effect1_foregroundBlur_0_1"/>
</filter>
<filter id="filter5_f_0_1" x="705.411" y="292.172" width="310.711" height="396.108" filterUnits="userSpaceOnUse" color-interpolation-filters="sRGB">
<feFlood flood-opacity="0" result="BackgroundImageFix"/>
<feBlend mode="normal" in="SourceGraphic" in2="BackgroundImageFix" result="shape"/>
<feGaussianBlur stdDeviation="3.30857" result="effect1_foregroundBlur_0_1"/>
</filter>
<filter id="filter6_f_0_1" x="681.255" y="274.996" width="343.797" height="429.194" filterUnits="userSpaceOnUse" color-interpolation-filters="sRGB">
<feFlood flood-opacity="0" result="BackgroundImageFix"/>
<feBlend mode="normal" in="SourceGraphic" in2="BackgroundImageFix" result="shape"/>
<feGaussianBlur stdDeviation="11.58" result="effect1_foregroundBlur_0_1"/>
</filter>
<filter id="filter7_f_0_1" x="626.59" y="240.171" width="411.23" height="495.372" filterUnits="userSpaceOnUse" color-interpolation-filters="sRGB">
<feFlood flood-opacity="0" result="BackgroundImageFix"/>
<feBlend mode="normal" in="SourceGraphic" in2="BackgroundImageFix" result="shape"/>
<feGaussianBlur stdDeviation="28.1228" result="effect1_foregroundBlur_0_1"/>
</filter>
<filter id="filter8_f_0_1" x="498.219" y="168.787" width="542.311" height="627.708" filterUnits="userSpaceOnUse" color-interpolation-filters="sRGB">
<feFlood flood-opacity="0" result="BackgroundImageFix"/>
<feBlend mode="normal" in="SourceGraphic" in2="BackgroundImageFix" result="shape"/>
<feGaussianBlur stdDeviation="61.2085" result="effect1_foregroundBlur_0_1"/>
</filter>
<filter id="filter9_f_0_1" x="320.785" y="99.479" width="727.088" height="752.21" filterUnits="userSpaceOnUse" color-interpolation-filters="sRGB">
<feFlood flood-opacity="0" result="BackgroundImageFix"/>
<feBlend mode="normal" in="SourceGraphic" in2="BackgroundImageFix" result="shape"/>
<feGaussianBlur stdDeviation="107.528" result="effect1_foregroundBlur_0_1"/>
</filter>
<filter id="filter10_f_0_1" x="694.099" y="231.046" width="381.279" height="328.988" filterUnits="userSpaceOnUse" color-interpolation-filters="sRGB">
<feFlood flood-opacity="0" result="BackgroundImageFix"/>
<feBlend mode="normal" in="SourceGraphic" in2="BackgroundImageFix" result="shape"/>
<feGaussianBlur stdDeviation="3.30857" result="effect1_foregroundBlur_0_1"/>
</filter>
<filter id="filter11_f_0_1" x="674.164" y="207.656" width="414.364" height="362.074" filterUnits="userSpaceOnUse" color-interpolation-filters="sRGB">
<feFlood flood-opacity="0" result="BackgroundImageFix"/>
<feBlend mode="normal" in="SourceGraphic" in2="BackgroundImageFix" result="shape"/>
<feGaussianBlur stdDeviation="11.58" result="effect1_foregroundBlur_0_1"/>
</filter>
<filter id="filter12_f_0_1" x="631.652" y="155.257" width="480.738" height="429.208" filterUnits="userSpaceOnUse" color-interpolation-filters="sRGB">
<feFlood flood-opacity="0" result="BackgroundImageFix"/>
<feBlend mode="normal" in="SourceGraphic" in2="BackgroundImageFix" result="shape"/>
<feGaussianBlur stdDeviation="28.1228" result="effect1_foregroundBlur_0_1"/>
</filter>
<filter id="filter13_f_0_1" x="537.602" y="33.0652" width="612.878" height="560.588" filterUnits="userSpaceOnUse" color-interpolation-filters="sRGB">
<feFlood flood-opacity="0" result="BackgroundImageFix"/>
<feBlend mode="normal" in="SourceGraphic" in2="BackgroundImageFix" result="shape"/>
<feGaussianBlur stdDeviation="61.2085" result="effect1_foregroundBlur_0_1"/>
</filter>
<filter id="filter14_f_0_1" x="432.378" y="-129.182" width="747.584" height="732.133" filterUnits="userSpaceOnUse" color-interpolation-filters="sRGB">
<feFlood flood-opacity="0" result="BackgroundImageFix"/>
<feBlend mode="normal" in="SourceGraphic" in2="BackgroundImageFix" result="shape"/>
<feGaussianBlur stdDeviation="107.528" result="effect1_foregroundBlur_0_1"/>
</filter>
<filter id="filter15_f_0_1" x="880.517" y="291.694" width="297.273" height="368.628" filterUnits="userSpaceOnUse" color-interpolation-filters="sRGB">
<feFlood flood-opacity="0" result="BackgroundImageFix"/>
<feBlend mode="normal" in="SourceGraphic" in2="BackgroundImageFix" result="shape"/>
<feGaussianBlur stdDeviation="2" result="effect1_foregroundBlur_0_1"/>
</filter>
<filter id="filter16_f_0_1" x="877.552" y="279.809" width="317.273" height="388.628" filterUnits="userSpaceOnUse" color-interpolation-filters="sRGB">
<feFlood flood-opacity="0" result="BackgroundImageFix"/>
<feBlend mode="normal" in="SourceGraphic" in2="BackgroundImageFix" result="shape"/>
<feGaussianBlur stdDeviation="7" result="effect1_foregroundBlur_0_1"/>
</filter>
<filter id="filter17_f_0_1" x="876.354" y="254.591" width="358.382" height="428.692" filterUnits="userSpaceOnUse" color-interpolation-filters="sRGB">
<feFlood flood-opacity="0" result="BackgroundImageFix"/>
<feBlend mode="normal" in="SourceGraphic" in2="BackgroundImageFix" result="shape"/>
<feGaussianBlur stdDeviation="17" result="effect1_foregroundBlur_0_1"/>
</filter>
<filter id="filter18_f_0_1" x="894.965" y="199.066" width="437.273" height="508.628" filterUnits="userSpaceOnUse" color-interpolation-filters="sRGB">
<feFlood flood-opacity="0" result="BackgroundImageFix"/>
<feBlend mode="normal" in="SourceGraphic" in2="BackgroundImageFix" result="shape"/>
<feGaussianBlur stdDeviation="37" result="effect1_foregroundBlur_0_1"/>
</filter>
<filter id="filter19_f_0_1" x="919.84" y="149.466" width="544.691" height="565.716" filterUnits="userSpaceOnUse" color-interpolation-filters="sRGB">
<feFlood flood-opacity="0" result="BackgroundImageFix"/>
<feBlend mode="normal" in="SourceGraphic" in2="BackgroundImageFix" result="shape"/>
<feGaussianBlur stdDeviation="65" result="effect1_foregroundBlur_0_1"/>
</filter>
<filter id="filter20_f_0_1" x="871.499" y="400.485" width="333.281" height="336.401" filterUnits="userSpaceOnUse" color-interpolation-filters="sRGB">
<feFlood flood-opacity="0" result="BackgroundImageFix"/>
<feBlend mode="normal" in="SourceGraphic" in2="BackgroundImageFix" result="shape"/>
<feGaussianBlur stdDeviation="2" result="effect1_foregroundBlur_0_1"/>
</filter>
<filter id="filter21_f_0_1" x="866.749" y="395.538" width="353.281" height="356.401" filterUnits="userSpaceOnUse" color-interpolation-filters="sRGB">
<feFlood flood-opacity="0" result="BackgroundImageFix"/>
<feBlend mode="normal" in="SourceGraphic" in2="BackgroundImageFix" result="shape"/>
<feGaussianBlur stdDeviation="7" result="effect1_foregroundBlur_0_1"/>
</filter>
<filter id="filter22_f_0_1" x="860.906" y="389.181" width="393.829" height="396.904" filterUnits="userSpaceOnUse" color-interpolation-filters="sRGB">
<feFlood flood-opacity="0" result="BackgroundImageFix"/>
<feBlend mode="normal" in="SourceGraphic" in2="BackgroundImageFix" result="shape"/>
<feGaussianBlur stdDeviation="17" result="effect1_foregroundBlur_0_1"/>
</filter>
<filter id="filter23_f_0_1" x="864.482" y="391.12" width="473.281" height="476.401" filterUnits="userSpaceOnUse" color-interpolation-filters="sRGB">
<feFlood flood-opacity="0" result="BackgroundImageFix"/>
<feBlend mode="normal" in="SourceGraphic" in2="BackgroundImageFix" result="shape"/>
<feGaussianBlur stdDeviation="37" result="effect1_foregroundBlur_0_1"/>
</filter>
<filter id="filter24_f_0_1" x="882.305" y="407.854" width="554.857" height="555.781" filterUnits="userSpaceOnUse" color-interpolation-filters="sRGB">
<feFlood flood-opacity="0" result="BackgroundImageFix"/>
<feBlend mode="normal" in="SourceGraphic" in2="BackgroundImageFix" result="shape"/>
<feGaussianBlur stdDeviation="65" result="effect1_foregroundBlur_0_1"/>
</filter>
<linearGradient id="paint0_linear_0_1" x1="1771.12" y1="482.03" x2="1771.12" y2="-14" gradientUnits="userSpaceOnUse">
<stop stop-color="white"/>
<stop offset="1" stop-color="white" stop-opacity="0"/>
</linearGradient>
<linearGradient id="paint1_linear_0_1" x1="967.454" y1="375.104" x2="448.927" y2="332.073" gradientUnits="userSpaceOnUse">
<stop stop-color="white"/>
<stop offset="1" stop-color="white" stop-opacity="0"/>
</linearGradient>
<linearGradient id="paint2_linear_0_1" x1="1038.41" y1="427.463" x2="807.514" y2="-38.8078" gradientUnits="userSpaceOnUse">
<stop stop-color="white"/>
<stop offset="1" stop-color="white" stop-opacity="0"/>
</linearGradient>
<linearGradient id="paint3_linear_0_1" x1="1719.18" y1="630.03" x2="1719.18" y2="134" gradientUnits="userSpaceOnUse">
<stop stop-color="white"/>
<stop offset="1" stop-color="white" stop-opacity="0"/>
</linearGradient>
<linearGradient id="paint4_linear_0_1" x1="1863.21" y1="1167.59" x2="1863.21" y2="671.559" gradientUnits="userSpaceOnUse">
<stop stop-color="white"/>
<stop offset="1" stop-color="white" stop-opacity="0"/>
</linearGradient>
</defs>
</svg>